<?xml version="1.0" encoding="utf-8"?>
<!-- Generator: Adobe Illustrator 24.0.3, SVG Export Plug-In . SVG Version: 6.00 Build 0)  -->
<svg version="1.1" id="Capa_1" xmlns="http://www.w3.org/2000/svg" xmlns:xlink="http://www.w3.org/1999/xlink" x="0px" y="0px"
	 viewBox="0 0 296.5 71.3" style="enable-background:new 0 0 296.5 71.3;" xml:space="preserve">
<style type="text/css">
	.st0{opacity:0.75;}
	.st1{fill:#010101;}
	.st2{fill:#181818;}
	.st3{fill:#848484;}
	.st4{fill:#595959;}
	.st5{fill:#999999;}
	.st6{fill:#F9F9F9;}
	.st7{fill:#FDFDFD;}
	.st8{fill:#FCFCFC;}
	.st9{fill:#FAFAFA;}
	.st10{fill:#FBFBFB;}
	.st11{fill:#1A1A1A;}
	.st12{fill:#1B1B1B;}
	.st13{fill:#ECECEC;}
	.st14{fill:#090909;}
	.st15{fill:#080808;}
	.st16{fill:#0C0C0C;}
	.st17{fill:#333333;}
	.st18{fill:#B9B9B9;}
	.st19{fill:#F8F8F8;}
	.st20{fill:#222222;}
	.st21{fill:#272727;}
	.st22{fill:#0A0A0A;}
	.st23{fill:#D1D1D1;}
	.st24{fill:#171717;}
	.st25{fill:#131313;}
</style>
<g transform="translate(71.57 28.85)" class="st0">
	<path class="st1" d="M210.9,25c-4.8,4.4-10.3,5-16.1,2.6c-4.7-1.9-6.6-5.9-6.5-10.7c0.1-5.2,2.9-8.7,7.8-10.4
		c3.8-1.2,7.9-1.4,11.8-0.6c1.2,0.2,3.1,1.7,3.8-0.3c0.6-1.7-0.8-3.1-2.2-4.1s-3.6-0.9-3.7-3.8c-0.2-7.8,0.7-8.6,8.5-6.6
		c5.9,1.6,9,5.6,10.6,11.2v1c-1.1,6.5-0.6,13.1-0.4,19.6c0.1,4.1-1.3,5-5.1,4.8C216.2,27.6,213.2,27.8,210.9,25L210.9,25z"/>
	<path class="st2" d="M-70.6,22.1h-1v-50.8c20.8,0,41.6,0,62.5,0c1.4,0,3.3-1.1,4.3,1c-2.2,2-5,1.6-7.6,1.6c-16.6,0-33.3,0-49.9,0
		c-6.5,0-6.7,0.2-6.7,6.8v34.3C-69,17.5-68.6,20.1-70.6,22.1z"/>
	<path class="st2" d="M210.9,25c2.8,2.1,6,2.2,9.4,2.2c2.9,0,3.7-1.2,3.6-3.9c-0.1-5.1-0.1-10.3,0-15.4c0-1.6-0.6-3.4,1-4.7v24.8
		c-2.9,0-5.8-0.2-8.7,0C213.5,28.4,211.7,27.6,210.9,25L210.9,25z"/>
	<path d="M-70.6,22.1c0-14.9,0.1-29.9-0.1-44.8c0-3.9,1-5.1,5-5.1c20.3,0.2,40.6,0.1,60.9,0.1L-4.6,19c0,3.5-2.1,5.9-4.6,7.8
		c-8.5,6.5-18.8,9.8-27.8,15.3c-1.1,0.7-1.8,0.1-2.7-0.3c-7.5-3.9-15-7.7-22.4-11.8C-65.5,28.2-69.1,26.2-70.6,22.1z"/>
	<path d="M132.1-4.5c8.4-6.7,16.5-6.6,22.6-0.5c6.8,6.9,7.3,20.8,1,28.4c-5.8,7-14,7.6-23.4,1.4c0.3,2.8-0.9,3.6-3.5,3.6
		c-9.7,0.1-9.7,0.2-9.7-9.4s-0.1-18.9,0-28.3c0-2.3-0.2-4-3.1-3.5c-2.5,0.4-3-0.8-3-3c-0.4-10-0.5-10,9.5-10c9.8,0,9.8,0,9.8,9.7
		L132.1-4.5z"/>
	<path d="M4-8.6c0-5.6,0.1-11.3,0-16.9c-0.1-2.4,0.8-3.1,3.1-3c6.6,0.2,13.3-0.2,19.9,0.2c13.1,0.8,20.3,10,17.3,21.6
		C42.6,0,37.8,3.4,31.5,5.1C28,6,24.3,6.3,20.6,6.1c-2.1-0.1-3.7,0.1-3.3,2.8s-1.1,2.9-3.2,2.9C4,12.2,4,12.3,4,2.3L4-8.6z"/>
	<path d="M89.3,13.3c2.9,6.5,7.6,7.8,14,4.1c2-1.2,8.8,1.9,8.9,4.2c0,0.8-0.9,1.7-1.6,2.3c-6.4,6.4-18.9,7.1-26.7,1.5
		c-7.4-5.4-9.8-16.4-5.4-25c4.2-8.4,14-12.2,23.4-9.2c7.9,2.6,13.4,11.7,12.4,20c-0.3,2.8-2.1,2-3.6,2
		C103.7,13.4,96.8,13.3,89.3,13.3L89.3,13.3z"/>
	<path d="M177.9-6.2c0,6.1,0.1,12.3,0,18.4c0,1.9,0.3,3.3,2.7,2.9c3.1-0.5,3,1.5,3,3.6c0.2,9.4,0.2,9.4-9.2,9.4
		c-9.6,0-9.6,0-9.6-9.4c0-9.6,0-19.2,0-28.8c0-2,0.3-4.2-2.9-3.7c-2.6,0.4-2.9-1-3-3.2c-0.4-9.9-0.4-9.9,9.6-9.9
		c9.3,0,9.3,0,9.3,9.2L177.9-6.2z"/>
	<path class="st1" d="M58.4,23.6c-3,2.2-5.1,4.1-7.9,4.8c-7.5,1.8-13.7-1.9-15.5-9.3c-0.7-3-0.5-5.9-0.5-8.9c0-4.3,4.4-3.2,6.6-4.9
		c2.4-1.8,4.6-3.8,6.7-6c0,4.6-0.1,7.9,0,11.3s1.2,6.4,5.2,6.4s5.7-2.8,5.3-6.3C57.9,6.9,60,6.9,62.7,7c8.8,0,8.8-0.1,8.8,8.7v3
		c0,9.7,0,9.5-9.8,9.4C58.8,28.1,58,27,58.4,23.6z"/>
	<path class="st3" d="M202.8-3.6c-0.1,7.2,1.1,6.5-7.3,6.5c-6.3,0-6.3,0-6.3-7s-0.7-6.3,7-6.3S202.7-11,202.8-3.6z"/>
	<path class="st4" d="M58.2-2.8c0.1-7.5-1-6.6,6.6-6.6c7.7,0,6.7-1,6.7,7c0,7.4,0.9,6.3-7.3,6.4C57.2,3.9,58.3,4.6,58.2-2.8z"/>
	<path class="st5" d="M11.4,28c-8.4-0.1-7.4,0.9-7.4-6.7C4.1,14,3,15,11.3,15c7,0,5.5-0.9,6.1,7.1C17.9,28,15.3,28.9,11.4,28z"/>
	<path class="st6" d="M205.8,20.6c-2.7-0.2-4.9-1.2-4.7-4.4c0.2-3.6,3-4.5,6-4.3c1.9,0.1,5.2-0.9,5,2.9S209.4,20.2,205.8,20.6z"/>
	<path class="st7" d="M-38-20.2c7.1,0,14.3,0.1,21.4-0.1c3.2-0.1,4.3,0.7,4.2,4.1c-0.2,9.9-0.3,19.9,0,29.8c0.1,4.5-1.5,7.7-5.3,9.8
		c-6.2,3.5-12.6,6.7-18.8,10.1c-1,0.6-2.2,0.6-3.2-0.1c-6-3.2-12.1-6.2-18-9.5c-4.2-2.3-6.3-5.8-6.1-11c0.4-9.8,0.2-19.5,0-29.3
		c-0.1-3,0.7-4,3.8-3.9C-52.6-20-45.3-20.2-38-20.2z"/>
	<path class="st8" d="M131.9,9.6c0.1-4.9,3.5-8.5,7.9-8.3c4.1,0.2,7.2,3.8,7.3,8.4c0,4.9-3.2,8.5-7.7,8.5S131.9,14.5,131.9,9.6z"/>
	<path class="st9" d="M17.4-10c0-4-1.5-7.9,4.6-7.4c6.4,0.5,9.3,2.1,9.4,6.4s-2.9,5.9-9.2,6.5C16.1-3.8,17.4-7.6,17.4-10z"/>
	<path class="st10" d="M95.6,7c-2.2-1.4-5.8,1.2-6.1-1.8s2.4-5.3,6-5.2c3.2,0,6,2,5.7,4.9C100.9,8.6,97,5,95.6,7z"/>
	<path class="st11" d="M-46.5,10c0.1-4.3,0.3-8.6,0.2-12.9c-0.1-4.1,1.5-4.6,4.8-2.8C-39.3-0.2-40,5.4-41.1,11
		C-43.3,12.7-45.1,12.7-46.5,10z"/>
	<path class="st12" d="M-33.6,10.1c0-4.6,0.1-9.2,0.1-13.8c0-1.6,0.1-2.9,2.3-2.9s2.4,1.2,2.4,2.8c0,4.6,0.1,9.2,0.1,13.8
		C-30.3,12.7-31.9,12.7-33.6,10.1z"/>
	<path class="st13" d="M-33.6,10.1c1.4,1.3,3.5,1.3,4.9,0c2.3-2.7,0.3-5.9,1-8.9c0.4-2-1.1-4.3,1.3-5.9c2.4,3.8,0.4,8.3,1.7,12.9
		c1.6-4.6-0.6-9,1.8-12.9l1.5-0.2c0.7,0,1.1,0.3,0.8,1.1c-1.2,5.4-2.5,10.9,1,16c-6.3,2.4-12.8,1.3-19.2,0.8
		c-0.5-0.2-0.9-0.7-1.1-1.2c3.6-4.7,4.2-16.7,1.1-21.5c-0.4-0.3-0.7-0.7-0.9-1.1c4-2.1,5.3-0.6,5.2,3.6c-0.1,5.8,0.1,11.6,0.1,17.3
		c0,0.1,0.2,0.2,0.3,0.2C-33.9,10.3-33.7,10.2-33.6,10.1z"/>
	<path class="st13" d="M-39.5,10.9l-0.1,1.1c-5.6,2.6-11.3,2.3-17,0.2c2.2-1.2,3.1-2.7,3.1-5.4C-53.4,3-55.1-1-52.2-4.5
		c2.2,3.8,0.2,8.3,1.7,12.7c1.5-4.4-0.7-8.9,1.8-12.8c2.8,4.6,0.5,9.6,1.3,14.3c0,0.1,0.1,0.4,0.2,0.4c0.3,0,0.6,0,0.8-0.1
		c1.2,1.5,2.9,0.8,4.4,1.1c2-2.4,0.6-5.1,0.9-7.7c0.4-3-0.4-6.1,0.4-9.1c0.3-1.7-0.5-3.6,1-5.1l0.2,0.2
		C-37.2-3.6-37.2,3.9-39.5,10.9z"/>
	<path class="st14" d="M-20.6-3.7c0-0.6-0.1-1-0.8-1.1l-7.1-10.8C-21.7-16.5-17-9.8-18-0.9L-20.6-3.7z"/>
	<path class="st15" d="M-23-4.6c0.1,4.3,0.2,8.5,0.3,12.8c0,1.4,0.1,2.6-1.9,2.7c-2.2,0.1-2.4-1.2-2.3-2.8c0.2-4.3-0.5-8.6,0.5-12.8
		L-23-4.6z"/>
	<path class="st16" d="M-48.8-4.6c1.3,4.4,0.3,8.9,0.6,13.3c0.1,1.6-0.5,2.4-2.3,2.3s-2-1.2-2-2.7c0.1-4.3,0.2-8.6,0.3-12.9
		L-48.8-4.6z"/>
	<path class="st15" d="M-58.3-0.8c-1.4-8.9,3.3-15.7,10.4-14.7C-51.3-10.6-54.7-5.9-58.3-0.8z"/>
	<path class="st17" d="M-26.8,21.3c0.2,4.2-3.2,1.8-4.9,2.7c-4.3,0.8-8.6,0.8-12.9,0c-1.6-1-5.2,1.6-4.9-2.8
		c4.5-2.9,9.5-1.2,14.3-1.4C-32.4,19.7-29.2,18.9-26.8,21.3z"/>
	<path class="st18" d="M-26.8,21.3c-7.6-0.6-15.1-0.6-22.7-0.1c-1-1.7-2.8-0.8-4.2-1.1c-0.3-0.6,0-1.3,0.5-1.6c10-1.4,20-1.4,30,0
		c0.6,0.3,0.8,1,0.5,1.5c0,0,0,0,0,0.1C-24.1,20.4-25.8,19.6-26.8,21.3z"/>
	<path class="st19" d="M-22.6,20.1c0.1-0.3,0.1-0.7,0-1c-1-1.1-2.5-1.7-3.9-1.5c-7.7,0-15.4,0-23.2,0c-1.5-0.1-3,0.5-3.9,1.6
		c-0.1,0.3-0.1,0.6,0,0.9c-1.4-1.4-0.9-4-2.9-5c1.3-1,2.9-1.5,4.6-1.3c9.2-0.1,18.4-0.1,27.6,0c1.7,0,3.3,0.1,4.6,1.3
		C-21.7,16.2-21.2,18.7-22.6,20.1z"/>
	<path class="st20" d="M-56.6,12.2l17-0.2l19.9,0.2l-0.1,1.9c-0.6,0.2-1.2,0.3-1.8,0.1c-9.8-0.2-19.5,0-29.2-0.1c-1.9,0-4,0.4-5.7-1
		L-56.6,12.2z"/>
	<path class="st21" d="M-20.7,14.2h0.9c0.2,0.3,0.2,0.6,0.1,0.9l-36.9,0.1l0.1-1C-44.6,13.4-32.6,13.4-20.7,14.2z"/>
	<path d="M-20.7,14.2h-35.8v-1h31.2C-23.7,13.2-22,12.6-20.7,14.2z"/>
	<path class="st22" d="M-32.8,28c-2.8,0-5.6-0.1-8.5,0c-1.9,0.1-3.3-0.2-3.2-2.5c3.2-2.5,6.8-1.3,10.3-1.1
		C-32.1,24.6-31.6,26.2-32.8,28z"/>
	<path class="st23" d="M-32.8,28c0.9-2,0.5-3.1-1.9-2.9c-3.2,0.2-6.5,0.3-9.7,0.4l-0.2-1.5c4.3-0.7,8.6-0.7,12.9,0
		C-31.8,25.4-30.5,27.2-32.8,28z"/>
	<path class="st19" d="M-40.7-5.7c0,4.4,0.1,8.7,0.1,13.1c0,1.4,0.4,3-1.4,3.7c0.2-5.6,0.3-11.2,0.5-16.8C-41.3-5.7-41-5.7-40.7-5.7
		z"/>
	<path class="st24" d="M-39.5,10.9l-0.1-21.6c3.1-0.6,4.5,0.3,4.2,3.8c-0.3,4.6-0.3,9.2,0,13.9C-35.2,10.3-36.2,11.6-39.5,10.9z"/>
	<path class="st25" d="M-53.7,19.2c-0.8-2.2,0.1-3,2.3-2.9c8.8,0,17.5,0.1,26.3,0c2.2,0,3.1,0.7,2.5,2.9L-53.7,19.2z"/>
</g>
</svg>
