<svg enable-background="new 0 0 62.4 70.5" viewBox="0 0 62.4 70.5" xmlns="http://www.w3.org/2000/svg"><path d="m42.5 34.7c0-12.2 0-12.2 10.5-6.2 2.4 1.4 4.9 2.8 7.3 4.2s2.9 2.7.2 4.2c-4.7 2.7-9.5 5.4-14.2 8.2-3 1.8-3.8.4-3.8-2.4.1-2.7 0-5.4 0-8z" fill="#535353"/><path d="m21.2 22.5c0-12.4 0-12.4 10.7-6.2 2.3 1.3 4.6 2.7 6.9 4 2.5 1.4 3.4 2.7.3 4.5-4.7 2.7-9.5 5.4-14.2 8.2-3 1.8-3.8.5-3.7-2.4.1-2.8 0-5.5 0-8.1z" fill="#929292"/><path d="m21.2 46.5c.8-2.9-2-8.1 1.2-10 2.8-1.5 6.2 2.9 9.4 4.4.3.1.6.3.9.5 2.7 2 7.9 2.5 7.9 5.9 0 2.9-5.1 3.6-7.7 5.5-.3.2-.6.4-.9.5-10.8 6.2-10.8 6.2-10.8-6.8z" fill="#cbcbcb"/><path d="m1.7 48.3c.8.4 1.6.7 2.3 1.1 4.5 2.6 8.8 5.2 13.4 7.7 3.2 1.8 2.8 3.1-.1 4.7-4.6 2.6-9.2 5.3-13.8 7.9-2 1.2-3.5 1.4-3.5-1.6 0-5.8 0-11.6 0-17.4 0-1.2.1-2.3 1.7-2.4z" fill="#8b8b8b"/><path d="m0 10c0-12 0-12 10.4-6.1l7.3 4.2c2.3 1.3 2.9 2.6.1 4.2-4.8 2.7-9.5 5.5-14.2 8.2-2.4 1.4-3.7 1.1-3.6-2 .1-2.8 0-5.7 0-8.5z" fill="#c2c2c2"/><path d="m0 34.6c0-2.6 0-5.3 0-7.9-.1-3 1.2-3.5 3.6-2 4.7 2.7 9.4 5.5 14.2 8.1 2.5 1.4 2.6 2.7 0 4.1-4.7 2.7-9.5 5.4-14.2 8.1-2.4 1.4-3.7 1-3.7-2 .1-2.8.1-5.6.1-8.4z" fill="#686868"/></svg>